<mxfile host="app.diagrams.net" modified="2024-03-23T09:58:33.981Z" agent="Mozilla/5.0 (Macintosh; Intel Mac OS X 10_15_7) AppleWebKit/537.36 (KHTML, like Gecko) Chrome/122.0.0.0 Safari/537.36" version="24.0.8" etag="cu8R6jxiIrxjtio1Yf-G" type="github">
  <diagram name="PÃ¡gina-1" id="jm7SclHZlelQChkW8oIm">
    <mxGraphModel>
      <root>
        <mxCell id="0" />
        <mxCell id="1" parent="0" />
      </root>
    </mxGraphModel>
  </diagram>
</mxfile>
